<svg width="129" height="123" viewBox="0 0 129 123" fill="none" xmlns="http://www.w3.org/2000/svg">
<g id="noto:dog">
<path id="Vector" d="M29.1661 60.6832C29.1661 60.6832 26.7574 67.3137 28.1684 74.3477C29.5894 81.3818 31.5748 87.8777 31.5748 87.8777C31.5748 87.8777 31.998 101.677 31.5748 103.166C31.1515 104.656 27.8862 106.549 27.8862 109.259C27.8862 111.968 28.9242 115.389 34.1749 116.206C39.4256 117.023 43.6786 115.351 45.4322 113.323C47.9618 110.393 47.468 108.317 47.468 106.155C47.468 103.993 47.6091 91.5485 48.1734 89.6459C48.7378 87.7528 49.5944 86.667 51.1566 86.8015C52.7187 86.936 54.4219 89.2327 54.563 93.5665C54.7041 97.8907 54.8451 105.473 54.7041 106.962C54.563 108.451 53.1419 113.458 54.2808 115.485C55.4196 117.513 60.5695 119.483 64.5403 119.272C69.7406 119.003 72.8648 115.889 73.147 113.458C73.4292 111.027 71.726 105.473 71.726 103.849C71.726 102.225 73.7114 91.1353 74.2758 90.4531C74.8401 89.7804 76.5736 89.9245 80.373 88.2909C83.8298 86.8015 85.6741 85.312 85.6741 85.312C85.6741 85.312 85.7648 94.9214 85.6237 95.9977C85.4826 97.0835 82.0762 100.466 82.6406 103.032C83.205 105.597 86.5308 107.096 89.4937 107.356C94.5026 107.808 99.3804 104.108 100.65 100.86C101.93 97.612 101.356 93.5569 101.074 91.3948C100.791 89.2327 100.791 81.6509 101.074 79.6233C101.356 77.5957 101.819 76.3657 102.001 75.2991C102.283 73.5406 102.212 71.5802 102.212 71.5802C102.212 71.5802 107.11 71.5802 110.013 69.7544C112.915 67.9287 115.969 64.748 117.319 60.8273C118.64 56.9932 118.317 55.8209 117.178 55.6863C116.04 55.5518 110.94 62.3745 106.606 62.5859C99.723 62.9222 100.408 55.8881 95.1576 51.6312C89.2418 46.8265 80.0203 46.2211 80.0203 46.2211C80.0203 46.2211 81.6126 40.542 81.6328 36.3427C81.7034 18.008 72.3408 11.7907 72.3408 11.7907C72.3408 11.7907 61.0835 3.7957 48.3145 4.33383C35.5455 4.87195 26.183 14.5486 26.183 14.5486L19.1585 44.107C19.1585 44.107 20.9323 49.7862 23.7743 53.9182C26.7574 58.2424 29.1661 60.6832 29.1661 60.6832Z" fill="#F3AD61"/>
<path id="Vector_2" d="M20.2973 7.995C9.86646 8.1968 4.35372 16.6723 4.19247 21.8613C4.10177 24.9075 2.84201 47.0475 15.6815 47.4991C20.8315 47.6817 24.6611 41.9834 26.6062 35.5259C29.0552 27.3867 28.9444 19.2284 29.2265 17.0566C29.6801 13.5877 30.4359 11.0412 30.4359 11.0412C30.4359 11.0412 29.1661 7.82203 20.2973 7.995ZM76.1301 4.6125C87.4781 5.01609 91.3481 9.81117 92.4466 12.5979C93.656 15.6441 94.7142 26.5123 92.9404 33.7673C91.4993 39.6867 89.3224 42.6945 84.2128 42.4927C79.5365 42.3101 77.1682 35.8814 73.6408 27.1369C70.2344 18.6806 67.6242 11.1084 67.1808 10.0226C66.6164 8.60039 65.407 7.995 65.407 7.995C65.407 7.995 67.6746 4.305 76.1301 4.6125Z" fill="#865B52"/>
<path id="Vector_3" d="M63.1495 26.5891C57.5461 26.9255 54.8653 32.8641 56.0545 38.8315C57.3345 45.2602 61.7587 48.3063 67.3319 47.6241C73.4292 46.8841 75.2735 40.2537 74.4975 35.2472C73.7819 30.6923 71.081 26.1087 63.1495 26.5891Z" fill="#D3883E"/>
<path id="Vector_4" d="M69.7406 37.4766C69.7406 40.2825 68.108 42.6272 65.5179 42.5599C62.0006 42.4638 61.0835 39.4945 61.1541 36.9961C61.2347 34.0748 63.0689 32.6911 65.6892 32.7584C68.0273 32.8064 69.7406 34.6706 69.7406 37.4766ZM40.1613 39.0237C40.1613 41.9449 38.5287 44.3857 35.9386 44.3088C32.4213 44.2127 31.5042 41.1185 31.5748 38.5144C31.6554 35.4682 33.8423 34.1709 35.8983 34.3151C38.2263 34.4784 40.1613 36.1024 40.1613 39.0237ZM53.6358 55.3404C53.6358 55.3404 59.8036 54.735 59.5214 50.4684C59.2392 46.2115 55.0568 45.9328 51.7915 46.0001C48.5262 46.0673 43.8499 47.6913 44.3437 51.2756C44.8376 54.8599 50.1588 55.3308 50.1588 55.3308C50.1588 55.3308 50.1487 57.983 48.3145 58.1752C46.3291 58.377 43.4871 55.4653 42.7111 54.7254C41.9351 53.9855 40.7257 54.2545 40.3024 54.8599C39.8791 55.4653 40.1613 56.8202 41.3707 57.9734C42.5801 59.1265 45.412 62.0285 48.2541 61.7594C51.0961 61.4904 51.1666 60.0682 52.2954 60.0009C53.4342 59.9337 53.3637 61.5577 56.1956 61.4904C58.1911 61.4423 62.2123 58.0983 62.9379 57.5025C64.5705 56.1476 64.9938 54.7927 64.2883 53.9182C63.5829 53.0437 61.5975 54.3218 60.5292 55.0713C59.4609 55.8112 57.7376 57.5602 56.0646 57.8484C53.283 58.3193 53.6358 55.3404 53.6358 55.3404Z" fill="#060401"/>
<path id="Vector_5" d="M78.821 48.9982C78.821 48.9982 77.4806 51.8041 76.362 54.0527C75.0115 56.7626 73.0765 59.1265 73.0765 59.1265C73.0765 59.1265 75.2634 73.3868 88.2743 72.1568C92.9304 71.7148 96.4577 68.2362 96.7903 64.5462C97.3547 58.3193 94.8755 55.4077 91.0256 52.5633C84.7873 47.97 78.821 48.9982 78.821 48.9982ZM69.8112 71.3016C67.5033 73.3195 68.7429 77.1152 71.7966 77.5284C74.8502 77.932 76.493 75.5105 76.2612 73.6751C75.9185 70.8307 72.4416 69.0049 69.8112 71.3016ZM39.6675 67.5539C39.6675 67.5539 37.6317 72.8775 41.9351 79.5464C43.7693 82.3812 47.8509 83.9763 50.7333 83.8706C53.7769 83.7649 56.5282 82.7559 58.8865 79.95C62.6456 75.4816 61.5773 68.044 61.5773 68.044C61.5773 68.044 55.6212 70.3791 50.1588 70.2061C44.3438 70.0331 39.6675 67.5539 39.6675 67.5539ZM32.2399 108.298C30.7584 107.865 30.1638 110.056 30.0631 111.45C29.9623 112.843 29.9723 114.649 31.2926 115.101C32.6128 115.553 32.3508 112.872 32.4717 111.988C32.7136 110.287 33.802 108.749 32.2399 108.298ZM38.055 109.114C37.1681 109.076 36.2309 109.931 36.12 112.41C36.0293 114.486 36.12 116.197 37.3495 116.293C39.0024 116.418 38.5388 114.4 38.6295 112.728C38.6698 111.776 39.8993 109.201 38.055 109.114ZM60.6199 111.815C59.1989 111.815 59.1586 113.352 59.1586 115.015C59.1586 116.687 58.7958 118.753 60.3881 118.935C62.3231 119.156 61.9502 116.677 61.9502 115.284C61.9402 114.073 62.172 111.815 60.6199 111.815ZM67.0498 111.507C65.9109 111.728 66.0117 113.218 66.052 115.024C66.1024 116.831 65.8202 118.743 67.4227 118.589C68.7933 118.455 68.7026 116.331 68.6522 114.707C68.6119 113.304 68.8034 111.152 67.0498 111.507ZM86.5308 99.7549C85.5532 99.5723 84.4446 100.36 84.1624 102.465C83.9306 104.271 84.0213 105.857 85.6741 106.203C86.5207 106.385 86.6719 104.31 86.7122 102.82C86.7626 101.533 87.7603 99.9855 86.5308 99.7549ZM91.8722 100.85C90.9349 100.706 90.0178 101.254 89.7759 103.493C89.6349 104.8 89.1309 107.145 90.8341 107.231C92.1544 107.289 92.0536 105.223 92.1745 104.146C92.366 102.446 93.4142 101.1 91.8722 100.85Z" fill="#D3883E"/>
</g>
</svg>
