<svg width="129" height="123" viewBox="0 0 129 123" fill="none" xmlns="http://www.w3.org/2000/svg">
<g id="noto:cat">
<path id="Vector" d="M19.8539 43.886C19.8136 43.886 19.7733 43.886 19.733 43.8764C19.6725 43.8668 18.1608 43.7034 15.5909 43.2614C12.7891 42.7713 10.9448 42.5695 10.9247 42.5695C10.32 42.5023 9.87656 41.9834 9.9471 41.3972C10.0177 40.8206 10.5719 40.3978 11.1766 40.4651C11.2573 40.4747 13.1116 40.6765 15.994 41.1762C18.4833 41.6086 19.9748 41.772 19.9849 41.772C20.5896 41.8392 21.033 42.3581 20.9625 42.9443C20.8919 43.4824 20.4082 43.886 19.8539 43.886ZM10.8642 48.1238C10.3099 48.1238 9.82617 47.7298 9.7657 47.1916C9.74887 47.0534 9.76083 46.9134 9.80089 46.7796C9.84095 46.6458 9.90833 46.5208 9.99915 46.4119C10.09 46.303 10.2025 46.2122 10.3302 46.1449C10.4579 46.0775 10.5982 46.0348 10.7433 46.0193C10.7735 46.0193 13.5752 45.7022 14.9962 45.4812C16.4677 45.2602 19.7733 44.7605 19.7733 44.7605L20.1159 46.8457L15.349 47.5664C13.8776 47.797 11.1162 48.1045 10.9952 48.1141C10.9448 48.1141 10.9045 48.1238 10.8642 48.1238ZM12.6077 52.5441C12.124 52.5441 11.6805 52.2462 11.5394 51.7753C11.3681 51.218 11.7108 50.6318 12.3054 50.4684L20.2469 48.3063C20.5275 48.238 20.825 48.2769 21.076 48.4147C21.327 48.5525 21.5116 48.7783 21.5904 49.044C21.6693 49.3097 21.6362 49.5942 21.4982 49.837C21.3602 50.0798 21.1282 50.2615 20.8516 50.3435L12.9101 52.5056C12.8194 52.5248 12.7085 52.5441 12.6077 52.5441Z" fill="#888071"/>
<path id="Vector_2" d="M53.7064 81.1127L42.7817 89.0981C42.7817 89.0981 43.2049 105.742 42.9228 106.414C42.6406 107.087 38.8109 111.286 39.2342 113.717C39.5667 115.61 41.0785 116.283 45.1903 116.427C49.3022 116.571 57.6771 114.803 57.6771 114.803L53.7064 81.1127ZM85.7749 87.4645L77.6923 91.7887C77.6923 91.7887 78.8311 95.0367 78.8311 99.6396C78.8311 104.242 78.4078 107.125 78.1256 108.077C77.8435 109.028 75.4751 110.825 75.717 113.439C75.8278 114.649 77.4202 115.601 80.2521 115.466C83.0841 115.332 87.206 115.063 87.206 115.063L91.3179 89.4921L85.7749 87.4645Z" fill="#B85C3E"/>
<path id="Vector_3" d="M33.5199 26.7237C33.5199 26.7237 32.1996 22.3034 33.3284 15.2693C34.4672 8.23523 36.3518 4.53563 38.1558 4.35305C39.9497 4.17047 43.3561 7.41844 46.0067 11.3006C48.6572 15.1828 50.8341 22.0343 50.8341 22.0343L33.5199 26.7237ZM64.3488 93.4608C64.3488 93.4608 64.4395 101.581 64.631 105.184C64.8225 108.788 64.6411 116.792 63.8752 117.676C62.696 119.031 61.5068 119.07 58.957 119.166C57.4352 119.224 59.4307 110.239 59.4307 109.874C59.4307 109.508 59.5214 87.9546 59.5214 87.9546L64.3488 93.4608Z" fill="#FB8B02"/>
<path id="Vector_4" d="M39.093 65.4206C39.093 65.4206 36.8254 72.2721 37.3898 77.4131C37.9542 82.5541 41.0784 89.0501 44.2026 91.6638C47.3268 94.2776 50.1588 95.6325 50.441 96.2667C50.7232 96.9009 51.862 105.828 51.479 107.721C51.0961 109.614 48.3548 114.486 48.8285 116.379C49.3021 118.272 51.1767 119.464 56.0142 119.358C62.3029 119.224 61.9703 118.32 62.444 114.582C62.7665 112.065 62.3533 94.6523 62.3533 94.6523C62.3533 94.6523 66.2334 95.0175 71.7159 94.6523C77.1984 94.2872 84.0112 91.9425 84.0112 91.9425C84.0112 91.9425 87.8913 103.483 86.561 107C85.2407 110.517 83.0639 112.507 83.4368 114.938C83.8197 117.369 87.1253 118.455 91.1969 118.09C95.2685 117.724 98.3826 115.207 98.5741 111.863C98.7656 108.528 98.6648 90.0398 99.2393 88.5984C99.8036 87.157 101.89 82.1986 101.698 77.2305C101.507 72.2625 101.134 70.283 101.134 70.283C101.134 70.283 106.022 68.5052 110.547 65.238C113.994 62.7492 116.584 59.4724 117.964 54.5909C120.232 46.567 117.118 38.6297 110.869 35.9198C104.863 33.3157 98.947 34.2959 98.7656 38.4471C98.5842 42.5984 102.454 41.6951 105.387 42.7713C108.32 43.8572 111.625 48.8156 108.128 53.6876C104.631 58.5595 98.4834 60.0874 96.5887 60.27C94.694 60.4526 91.1969 57.6562 83.9104 57.4737C76.6239 57.2911 66.1326 62.3456 65.8404 61.7114C65.5582 61.0772 76.241 54.4948 76.9968 45.9328C77.7023 37.9955 75.9588 34.2959 75.9588 34.2959C75.9588 34.2959 74.6386 20.862 72.7439 14.5486C70.8492 8.23523 68.2289 3.54586 66.5257 3.64195C64.8225 3.72844 59.34 9.41719 57.3546 12.2135C55.3692 15.0098 53.1923 19.5166 53.1923 19.5166C53.1923 19.5166 44.7267 19.2188 40.9877 20.5064C37.5813 21.6787 33.7012 23.6583 31.2421 27.3579C28.7831 31.0575 28.0272 33.2196 26.8884 33.7577C25.7496 34.2959 20.3578 35.3817 19.8841 36.0159C19.4104 36.6502 18.1809 45.0391 18.4631 46.298C18.7453 47.5568 18.967 50.4973 20.5392 52.1597C22.3331 54.0527 27.3016 57.2527 31.2321 59.6454C35.0315 61.9516 38.7201 63.7966 39.093 65.4206Z" fill="#FFB800"/>
<path id="Vector_5" d="M73.9533 74.2516C77.4504 74.2036 77.3597 70.1965 77.4101 65.2284C77.4504 60.885 77.269 58.3289 77.269 58.3289C77.269 58.3289 75.2634 58.5884 73.4897 59.2322C71.7361 59.8664 70.2244 60.4526 70.2244 60.4526V67.4386C70.2143 69.8313 70.4965 74.2997 73.9533 74.2516ZM80.1009 57.7043C80.1009 57.7043 80.1009 61.894 80.1513 65.4591C80.2017 69.2932 79.8187 73.4445 83.8399 73.3964C87.2967 73.358 87.2967 69.1587 87.337 64.4213C87.3572 61.942 87.4277 57.7043 87.4277 57.7043C87.4277 57.7043 85.7245 57.3872 83.6887 57.4352C82.0863 57.4737 80.1009 57.7043 80.1009 57.7043Z" fill="#FF9B31"/>
<path id="Vector_6" d="M45.1601 39.4177C44.4244 41.1185 42.8422 43.5497 40.2319 42.9155C38.559 42.5119 38.438 39.0813 39.4156 37.0441C40.5746 34.6418 42.1165 33.5559 43.9205 33.7577C45.9059 33.9884 46.0974 37.2363 45.1601 39.4177ZM27.8862 38.8987C27.8358 37.8129 24.9031 37.0537 22.6355 36.2369C20.7106 35.5547 19.6524 35.5162 19.1384 35.9679C18.6244 36.4195 17.9996 37.5919 17.7174 39.3984C17.4352 41.205 17.536 44.2608 17.9996 46.1634C18.4733 48.1045 19.2291 50.5357 22.5851 51.8041C25.4675 52.89 27.1707 51.4005 28.4002 50.5837C29.9623 49.5555 29.2871 47.1148 27.08 48.3736C25.4272 49.3249 24.2883 49.594 23.0084 48.6907C21.2548 47.4511 20.8315 43.7803 20.9726 43.4632C21.5874 42.0891 24.0465 41.7527 25.0442 41.3876C26.0419 41.0224 27.9366 39.8501 27.8862 38.8987Z" fill="#2C312C"/>
<path id="Vector_7" d="M47.7098 48.4793H47.6292C47.599 48.4793 44.4143 48.2583 42.4289 48.2102L36.7549 48.0757C36.7549 48.0757 35.5657 48.1718 35.5657 47.0571C35.5657 45.8752 36.8053 46.0577 36.8053 46.0577L42.4793 46.1923C44.5151 46.2403 47.6494 46.4517 47.7804 46.4613C48.3649 46.4998 48.7983 46.9898 48.7579 47.5376C48.7176 48.0757 48.254 48.4793 47.7098 48.4793ZM45.9058 55.0617C45.7547 55.0617 45.5934 55.0329 45.4523 54.9656C45.4322 54.956 42.9227 53.8125 40.6551 53.0726C38.2969 52.3134 35.6564 51.4966 35.6564 51.4966C35.1021 51.3237 34.7897 50.7567 34.9711 50.2282C35.1525 49.6997 35.7471 49.4018 36.3014 49.5748C36.3014 49.5748 38.962 50.3916 41.3304 51.1603C43.729 51.9387 46.2586 53.0918 46.3694 53.1495C46.8935 53.3897 47.1152 53.9951 46.8633 54.4948C46.6819 54.8503 46.2989 55.0617 45.9058 55.0617ZM40.7559 58.8094C40.5544 58.8094 40.3427 58.7517 40.1613 58.6364C40.1411 58.6268 38.3674 57.4737 37.1782 56.7722C35.9386 56.0515 33.7113 54.687 33.7113 54.687C33.7113 54.687 32.7136 54.1296 33.3586 53.2455C34.0036 52.3615 34.8501 52.9765 34.8501 52.9765C34.8501 52.9765 37.0673 54.3218 38.2868 55.0425C39.5264 55.7632 41.28 56.9163 41.3606 56.9644C41.8444 57.2815 41.9653 57.9061 41.6327 58.3673C41.4211 58.6556 41.0885 58.8094 40.7559 58.8094Z" fill="#888071"/>
<path id="Vector_8" d="M64.8527 11.8484C64.3689 11.685 61.2346 15.1636 59.6725 18.6134C58.1104 22.0631 57.546 23.9562 57.6871 24.5616C57.7476 24.8306 59.5516 26.3201 62.2223 28.3477C64.9938 30.4425 66.7574 31.7302 67.5435 31.6629C68.3196 31.5956 68.5413 25.8492 67.8963 20.6409C67.2513 15.4327 65.6287 12.1174 64.8527 11.8484Z" fill="#FED0AB"/>
</g>
</svg>
