<svg width="99" height="89" viewBox="0 0 99 89" fill="none" xmlns="http://www.w3.org/2000/svg">
<g id="Group">
<path id="Vector" d="M6.24219 39.5C4.79438 39.5 3.59375 38.2994 3.59375 36.8516V36.0394C3.59375 34.4151 4.90031 33.1438 6.48937 33.1438H8.89062V36.8516C8.89062 38.2994 7.69 39.5 6.24219 39.5Z" fill="#F8312F"/>
<path id="Vector_2" d="M47.8756 57.1562H37.2819L42.4375 88.0194C42.5434 88.5491 43.0025 88.9375 43.5322 88.9375H52.1484C52.6781 88.9375 53.1019 88.4431 53.0312 87.9134L47.8756 57.1562ZM63.4484 57.1562H74.0422L67.0856 88.09C66.9797 88.5844 66.5559 88.9375 66.0262 88.9375H57.41C57.2784 88.9417 57.1476 88.9152 57.0281 88.86C56.9085 88.8049 56.8034 88.7227 56.7212 88.6199C56.6389 88.517 56.5818 88.3965 56.5542 88.2677C56.5267 88.139 56.5295 88.0056 56.5625 87.8781L63.4484 57.1562Z" fill="#D3883E"/>
<path id="Vector_3" d="M60.2703 17.3238C60.9472 12.6226 63.3215 8.33182 66.9451 5.26121C70.5687 2.1906 75.1909 0.55256 79.9394 0.656249C90.2153 0.868124 98.655 9.23719 98.9375 19.5131C99.0464 23.2377 98.0816 26.9151 96.1581 30.1065C94.2347 33.2978 91.4337 35.8685 88.0895 37.5119C88.2566 38.4088 88.3414 39.3305 88.3437 40.2769V58.9219C88.3437 59.3103 88.5556 59.6634 88.8381 59.84L92.9697 62.5944C94.4881 63.6185 95.4062 65.3488 95.4416 67.185V87.8428C95.4416 88.4431 94.9472 88.9375 94.3469 88.9375H85.9425C85.3422 88.9375 84.8478 88.4431 84.8478 87.8428V75.5541C84.8478 75.095 84.5653 74.7066 84.1416 74.53L75.49 71.0694C73.0651 70.1021 70.9803 68.4395 69.4975 66.2907C68.0147 64.142 67.2002 61.6029 67.1562 58.9925L52.4662 57.1563L35.375 60.6875V64.8191C35.375 70.3631 30.9256 74.8125 25.3816 74.8125H21.25V76.1544C21.25 77.355 20.2612 78.3438 19.0606 78.3438H12.8809C11.645 78.3438 10.6562 77.355 10.6562 76.1544V73.7884C10.6562 68.4916 14.9291 64.2188 20.1906 64.2188H24.7812V60.5816C20.2612 56.1322 17.7187 50.0584 17.7187 43.7022V37.0634C17.7187 36.4631 17.2244 35.9688 16.6241 35.9688H10.6562C4.79437 35.9688 0.0625 31.2369 0.0625 25.375V24.5275C0.0625 23.0444 1.26312 21.8438 2.74625 21.8438H8.07844C9.59687 21.8438 10.9387 20.8197 11.2919 19.3366L11.6097 18.0653C12.3491 15.1121 14.0535 12.4904 16.4525 10.616C18.8514 8.74166 21.8075 7.72198 24.8519 7.71875H31.7025C33.7506 7.71875 35.6222 8.99 36.3637 10.8969L40.7778 21.9144L41.0144 22.5218C41.9007 24.8347 43.4898 28.9875 48.2287 28.3766L72.3119 25.4103C74.7564 25.2171 77.2108 25.633 79.4552 26.6209C81.6996 27.6088 83.664 29.1377 85.1727 31.0709C87.2941 29.9782 89.0549 28.2964 90.2438 26.2274C91.4327 24.1584 91.9991 21.7902 91.875 19.4072C91.5219 13.0863 86.4016 8.00125 80.1159 7.71875C75.0662 7.47156 70.6522 10.2612 68.5334 14.4281C67.2975 16.8294 64.755 18.3125 62.0712 18.3125H61.1531C61.0277 18.3134 60.9035 18.2876 60.7889 18.2367C60.6742 18.1859 60.5717 18.1112 60.4882 18.0177C60.4047 17.9241 60.342 17.8139 60.3045 17.6942C60.2669 17.5745 60.2553 17.4483 60.2703 17.3238Z" fill="#F3AD61"/>
<path id="Vector_4" d="M35.375 60.6875V53.6603L61.7534 53.625C64.755 53.625 67.1562 56.051 67.1562 58.9996C64.7701 60.1202 62.1649 60.6967 59.5288 60.6875H35.375Z" fill="#FFDEA7"/>
<path id="Vector_5" d="M17.7188 23.0444C17.7188 23.9979 18.4956 24.8101 19.4844 24.8101C20.4731 24.8101 21.25 23.9979 21.25 23.0444V21.0316C21.25 20.0429 20.4731 19.266 19.4844 19.266C18.4956 19.266 17.7188 20.0429 17.7188 21.0316V23.0444ZM2.71094 27.1407H4.47656C5.92438 27.1407 7.125 25.9401 7.125 24.4922C7.125 23.0444 5.92438 21.8438 4.47656 21.8438H2.71094C1.26313 21.8438 0.0625 23.0444 0.0625 24.4922C0.0625 25.9401 1.26313 27.1407 2.71094 27.1407Z" fill="#212121"/>
<path id="Vector_6" d="M24.7812 7.71875H37.3525C39.9303 7.71875 41.8372 10.1553 41.2016 12.6625L39.0828 21.1022C38.4825 23.6094 36.2225 25.375 33.6094 25.375C31.0316 25.375 28.7716 23.6094 28.1359 21.1022L24.7812 7.71875Z" fill="#D3883E"/>
</g>
</svg>
