<svg width="113" height="111" viewBox="0 0 113 111" fill="none" xmlns="http://www.w3.org/2000/svg">
<g id="twemoji:cat">
<path id="Vector" d="M32.8892 69.1869C32.8892 69.1869 35.0927 76.22 31.8314 93.832C31.2476 96.9924 30.3876 100.221 29.9512 102.866C24.4362 102.866 24.1412 109.039 25.312 109.039H31.8848C36.0815 109.039 41.2104 98.7591 43.9821 84.4926C46.7537 70.226 32.8892 69.1869 32.8892 69.1869ZM73.8266 80.6014C73.8266 80.6014 80.9582 84.3631 80.6945 93.1845C80.5909 96.6717 79.9129 99.6317 79.5802 102.508C73.8298 102.508 73.8078 108.629 75.484 108.629H81.3097C84.2069 108.629 90.7296 98.8917 91.9161 86.1791C93.1026 73.4666 73.8266 80.6014 73.8266 80.6014Z" fill="#F18F26"/>
<path id="Vector_2" d="M113 26.045C113 10.8688 100.002 3.08337 84.75 3.08337C83.9175 3.08337 83.1191 3.40822 82.5304 3.98646C81.9418 4.5647 81.6111 5.34896 81.6111 6.16671C81.6111 6.98446 81.9418 7.76872 82.5304 8.34695C83.1191 8.92519 83.9175 9.25004 84.75 9.25004C90.4125 9.25004 105.834 12.1299 105.834 26.045C105.834 34.928 100.915 42.8861 94.0003 44.4895C93.4855 44.2644 92.9173 44.1688 92.4026 43.8975C69.6801 31.82 50.1625 46.6786 44.6098 43.0033C39.1105 39.3588 42.918 32.967 35.7456 26.8374C34.7098 21.161 32.3776 13.0333 30.1145 13.0333C28.3912 13.0333 26.1438 18.6604 24.6528 24.306C22.7977 20.0479 20.3745 15.8083 18.8145 15.8083C16.8056 15.8083 14.803 22.8167 13.8111 28.8662C8.53773 32.4028 4.68945 37.5273 4.68945 43.5583C4.68945 51.8833 17.402 53.909 21.6395 54.0755C25.877 54.242 31.1283 65.0584 32.8924 69.7142C36.7909 83.1791 39.3302 96.5361 41.3611 104.195C36.1851 104.195 35.6985 110.704 37.1299 110.704C39.3679 110.704 43.2601 110.695 44.1139 110.704C48.4487 110.747 50.4733 96.1939 50.4733 83.4196C50.4733 82.766 50.4388 81.4864 50.4388 81.4864C50.4388 81.4864 56.4968 83.0434 69.3914 80.845C77.0628 79.5377 85.18 83.4628 87.4274 90.5976C89.0816 95.8516 91.8187 100.788 93.2909 104.423C88.3032 104.423 88.4413 110.704 89.8883 110.704C92.3586 110.704 95.5415 110.747 96.7405 110.704C101.348 110.534 98.7588 87.3509 99.9736 79.5716C101.188 71.7924 103.951 62.3728 99.2548 52.4475C109.412 46.9777 113 35.4738 113 26.045Z" fill="#FFCC4E"/>
<path id="Vector_3" d="M18.8145 39.0596C20.3747 39.0596 21.6395 37.8172 21.6395 36.2846C21.6395 34.7521 20.3747 33.5096 18.8145 33.5096C17.2543 33.5096 15.9895 34.7521 15.9895 36.2846C15.9895 37.8172 17.2543 39.0596 18.8145 39.0596Z" fill="#292F33"/>
<path id="Vector_4" d="M9.36645 39.6517C7.24142 40.9559 7.24142 45.1307 6.18048 45.1307C5.11954 45.1307 2.99451 42.6764 2.99451 39.6517C2.99137 36.6269 11.978 38.0483 9.36645 39.6517Z" fill="#E75A70"/>
<path id="Vector_5" d="M20.6476 44.2242C20.5157 44.3064 20.3671 44.3331 20.2018 44.3044C20.1453 44.292 15.3428 43.5613 12.2134 44.7545C11.8084 44.9087 11.143 44.6836 10.917 44.1656C10.691 43.6476 10.9892 43.0402 11.3941 42.886C15.9141 41.1316 20.3619 42.1645 20.6036 42.2139C21.0399 42.3033 21.2157 42.7997 21.1937 43.3609C21.1812 43.7124 20.8673 44.0854 20.6476 44.2242ZM19.166 51.4361C19.0115 51.4595 18.8537 51.4254 18.7234 51.3405C18.6763 51.3097 14.5456 48.7814 11.1838 48.7104C10.7506 48.7012 10.2264 48.2356 10.2264 47.659C10.2264 47.0855 10.7444 46.6261 11.1807 46.6323C16.0522 46.7063 19.731 49.3795 19.935 49.5214C20.3023 49.7742 20.2615 50.3076 20.0198 50.8287C19.866 51.1586 19.4265 51.3899 19.166 51.4361Z" fill="#FEE7B8"/>
<path id="Vector_6" d="M24.6528 24.2997C24.6528 24.2997 25.8205 24.1795 27.3492 24.4015C28.0303 22.9831 29.1854 21.6666 29.1854 21.6666C29.1854 21.6666 30.0674 23.7262 30.397 25.3018C30.4755 25.6718 31.0813 25.6626 31.4077 25.8846C31.4077 25.8846 31.527 15.207 28.6989 14.0569C28.702 14.0507 26.329 17.5226 24.6528 24.2997ZM13.808 28.86C13.808 28.86 15.0133 28.0367 16.5796 27.0901C17.2608 25.1661 18.3625 22.9801 18.3625 22.9801C18.3625 22.9801 19.3261 24.8362 19.4454 25.4776C20.1046 25.1261 20.1046 25.1507 20.7104 24.8917C20.7104 24.8917 20.3526 17.8432 17.2608 17.1001C17.2608 17.1001 14.9631 21.3305 13.808 28.86Z" fill="#F18F26"/>
<path id="Vector_7" d="M57.9125 72.9023C49.5976 74.6598 50.4419 81.4801 50.4419 81.4801C50.4419 81.4801 56.5 83.0372 69.3945 80.8388C72.6915 80.2974 76.0775 80.701 79.147 82.0012C74.1029 72.6063 65.6027 71.2743 57.9125 72.9023Z" fill="#FFDD99"/>
<path id="Vector_8" d="M46.0977 43.5028C47.5918 45.5871 53.6216 50.8041 54.7139 50.1597C55.7749 49.5338 56.5659 43.8235 55.7874 41.8162C51.6158 42.9231 48.3012 43.845 46.0977 43.5028ZM68.1452 51.7939C70.1007 52.2194 72.8755 42.6086 72.5711 39.0813C68.0228 39.1337 63.8449 39.8706 60.1254 40.737C61.1769 44.067 66.2556 51.3807 68.1452 51.7939ZM76.3911 39.2077C76.5229 41.437 79.4735 47.2336 80.4245 47.6468C81.3882 48.0692 85.7136 43.5799 86.2817 41.292C83.0893 40.1843 79.7652 39.4838 76.3911 39.2077Z" fill="#F18F26"/>
</g>
</svg>
